<svg xmlns="http://www.w3.org/2000/svg" viewBox="0 0 512 512">
  <defs>
    <linearGradient id="gradient" x1="74.98" y1="423.02" x2="437.02" y2="60.98" gradientUnits="userSpaceOnUse">
      <stop offset="0" stop-color="#6fa552"/>
      <stop offset="1" stop-color="#4475bc"/>
    </linearGradient>
  </defs>
  <circle cx="256" cy="256" r="256" fill="url(#gradient)"/>
  <path d="M124.13,354.9c-4.67,0-8.59-1.58-11.74-4.74-3.16-3.16-4.74-7.07-4.74-11.74s1.58-8.59,4.74-11.74c3.16-3.16,7.07-4.74,11.74-4.74h164.84c4.67,0,8.59,1.58,11.74,4.74,3.16,3.16,4.74,7.07,4.74,11.74s-1.58,8.59-4.74,11.74c-3.16,3.16-7.07,4.74-11.74,4.74H124.13ZM124.13,272.48c-4.67,0-8.59-1.58-11.74-4.74-3.16-3.16-4.74-7.07-4.74-11.74s1.58-8.59,4.74-11.74c3.16-3.16,7.07-4.74,11.74-4.74h263.74c4.67,0,8.59,1.58,11.74,4.74,3.16,3.16,4.74,7.07,4.74,11.74s-1.58,8.59-4.74,11.74c-3.16,3.16-7.07,4.74-11.74,4.74H124.13ZM124.13,190.07c-4.67,0-8.59-1.58-11.74-4.74-3.16-3.16-4.74-7.07-4.74-11.74s1.58-8.59,4.74-11.74c3.16-3.16,7.07-4.74,11.74-4.74h263.74c4.67,0,8.59,1.58,11.74,4.74,3.16,3.16,4.74,7.07,4.74,11.74s-1.58,8.59-4.74,11.74c-3.16,3.16-7.07,4.74-11.74,4.74H124.13Z" fill="#fff"/>
</svg>